# xmcd
# 
# Track frame offsets:
#     150
#     9945
#     23060
#     31912
#     43245
#     56110
#     69370
#     82947
#     99690
#     112950
#     124650
#     137395
#     155485
#     168465
#     183175
#     196177
#     211092
#     225617
#     245607
#     256985
# 
# Disc length: 3590
# 
# Revision: 19
# Processed by: cddbd v1.5.2PL0 Copyright (c) Steve Scherf et al.
# Submitted via: fre:ac v1.0.17
# 
DISCID=fc0e0414
DTITLE=Frank Sinatra - Classic Sinatra (His Great Performances 1953-1960)
DYEAR=2000
DGENRE=Jazz
TTITLE0=I've Got The World On A String
TTITLE1=I Get A Kick Out Of You
TTITLE2=They Can't Take That Away From Me
TTITLE3=My Funny Valentine
TTITLE4=Young At Heart
TTITLE5=Someone To Watch Over Me
TTITLE6=In The Wee Small Hours Of The Morning
TTITLE7=I've Got You Under My Skin
TTITLE8=You Make Me Feel So Young
TTITLE9=It Happened In Monterey
TTITLE10=Oh! Look At Me Now
TTITLE11=Night And Day
TTITLE12=Witchcraft
TTITLE13=The Lady Is A Tramp
TTITLE14=All The Way
TTITLE15=Come Fly With Me
TTITLE16=Put Your Dreams Away
TTITLE17=One For My Baby (And One More For The Road)
TTITLE18=Come Dance With Me
TTITLE19=Nice 'N' Easy
EXTD=YEAR: 2000
EXTT0=
EXTT1=
EXTT2=
EXTT3=
EXTT4=
EXTT5=
EXTT6=
EXTT7=
EXTT8=
EXTT9=
EXTT10=
EXTT11=
EXTT12=
EXTT13=
EXTT14=
EXTT15=
EXTT16=
EXTT17=
EXTT18=
EXTT19=
PLAYORDER=
